<svg width="256" height="283" viewBox="0 0 256 283" fill="none" xmlns="http://www.w3.org/2000/svg">
<g clip-path="url(#clip0_224_8)">
<path d="M238.069 12.854L206.024 107.367C204.635 107.7 203.281 108.12 201.966 108.625L170.31 44.047L138.562 108.243C137.19 107.77 135.778 107.381 134.33 107.093L102.395 12.854H238.069Z" fill="#4E4D4A"/>
<path d="M235.912 190.531C233.977 201.679 227.091 211.418 217.021 217.25C207.634 222.687 196.385 224.31 184.475 226.027C178.095 226.947 171.497 227.899 165.052 229.489C148.01 233.691 131.503 241.89 115.54 249.819C83.595 265.686 56.006 279.388 29.993 261.359C10.938 248.153 11.818 223.718 14.038 210.328C16.095 197.923 21.657 186.498 27.036 175.449C27.967 173.537 28.871 171.664 29.758 169.803C32.426 170.87 35.263 171.597 38.22 171.927C32.745 189.998 41.356 209.646 59.429 218.931L61.902 220.202L64.522 219.269C78.81 214.181 91.975 206.015 103.653 194.998C111.202 187.877 117.689 179.998 123.023 171.579C124.623 171.82 126.26 171.947 127.926 171.947C145.981 171.947 160.67 157.259 160.67 139.203C160.67 129.493 156.417 120.761 149.681 114.759L170.259 73.147L191.046 115.552C184.809 121.518 180.912 129.911 180.912 139.203C180.912 157.259 195.6 171.947 213.655 171.947C220.592 171.947 227.027 169.773 232.327 166.079C236.007 173.612 237.378 182.088 235.912 190.531Z" fill="#4E4D4A"/>
<path d="M41.872 119.503C52.84 119.503 61.762 128.425 61.762 139.392C61.762 150.359 52.84 159.282 41.872 159.282C30.906 159.282 21.983 150.359 21.983 139.392C21.983 128.425 30.906 119.503 41.872 119.503Z" fill="#4E4D4A"/>
<path d="M127.926 119.314C138.893 119.314 147.815 128.236 147.815 139.203C147.815 150.17 138.893 159.093 127.926 159.093C116.96 159.093 108.037 150.17 108.037 139.203C108.037 128.236 116.96 119.314 127.926 119.314Z" fill="#4E4D4A"/>
<path d="M233.545 139.203C233.545 150.17 224.623 159.093 213.655 159.093C202.689 159.093 193.766 150.17 193.766 139.203C193.766 128.236 202.689 119.314 213.655 119.314C224.623 119.314 233.545 128.236 233.545 139.203Z" fill="#4E4D4A"/>
<path d="M219.474 106.951L219.382 107.224L219.665 107.277C234.72 110.104 246.149 123.341 246.149 139.203C246.149 145.395 244.407 151.186 241.389 156.116L241.31 156.246L241.388 156.376C247.88 167.197 250.542 179.952 248.331 192.687C245.756 207.52 236.647 220.449 223.339 228.158C211.854 234.809 198.882 236.684 186.282 238.501L186.281 238.502L186.275 238.502L186.274 238.503L186.267 238.503L186.266 238.504L186.259 238.505C179.916 239.42 173.909 240.286 168.07 241.726C152.379 245.596 136.502 253.481 121.176 261.093L121.161 261.1L121.147 261.107L121.258 261.331L121.147 261.107C99.8323 271.694 78.1109 282.476 56.652 282.477C45.2676 282.478 33.9568 279.442 22.8124 271.719C4.47842 259.012 -3.07881 236.501 1.60367 208.266C3.95981 194.058 10.1896 181.258 15.7038 169.932L15.479 169.823L15.7038 169.932C16.8848 167.506 18.0345 165.137 19.1284 162.805L19.2035 162.645L19.0775 162.521C13.095 156.624 9.37904 148.435 9.37904 139.392C9.37904 121.475 23.9551 106.899 41.872 106.899C59.789 106.899 74.366 121.475 74.366 139.392C74.366 153.572 65.2318 165.653 52.5407 170.078L52.4361 170.114L52.3928 170.216C52.1744 170.732 51.9552 171.248 51.7364 171.762L51.642 171.984L51.242 172.924C46.0765 185.066 51.0571 198.984 62.7921 206.356L62.8988 206.423L63.0163 206.377C74.6079 201.834 85.3578 194.93 95.0036 185.83C101.086 180.092 106.394 173.817 110.871 167.148L111.015 166.934L110.795 166.797C101.58 161.054 95.433 150.836 95.433 139.203C95.433 123.713 106.333 110.726 120.864 107.492L121.136 107.432L121.047 107.168L84.8147 0.25H255.651L219.474 106.951Z" stroke="#4E4D4A" stroke-width="0.5"/>
</g>
<defs>
<clipPath id="clip0_224_8">
<rect width="256" height="283" fill="white"/>
</clipPath>
</defs>
</svg>
