<svg width="459" height="346" viewBox="0 0 459 346" fill="none" xmlns="http://www.w3.org/2000/svg">
<path d="M345.039 259.301H402.019V122.521L337.822 58.3412L297.531 98.6228L345.039 146.119V259.299V259.301ZM402.17 287.858H203.416L155.906 240.363L176.053 220.222L215.293 259.452H296.026L216.496 179.79L236.792 159.499L316.323 239.011V158.294L277.234 119.215L297.229 99.2233L198.455 0.0214844H0L56.8299 56.8373V56.9879H174.7L216.345 98.6228L155.456 159.497L113.81 117.862V85.5464H56.8299V141.461L155.456 240.062L115.313 280.193L179.51 344.374H459L402.17 287.858Z" fill="#4E4D4A"/>
</svg>
