<svg width="535" height="535" viewBox="0 0 535 535" fill="none" xmlns="http://www.w3.org/2000/svg">
<g clip-path="url(#clip0_1_3)">
<path d="M16.468 428.602C16.468 428.602 23.5233 359.002 72.8938 276.679C122.281 194.355 206.477 132.061 274.906 125.926C411.064 112.283 533.378 234.347 533.378 234.347C533.378 234.347 529.366 237.155 525.119 240.7C391.553 141.942 309.966 188.487 284.302 200.959C166.719 266.58 202.213 428.602 202.213 428.602H16.5014H16.468ZM403.54 139.1C396.017 136.057 388.494 133.248 380.736 130.657L381.672 115.109C396.468 119.355 402.353 122.181 404.46 123.351L403.524 139.117L403.54 139.1ZM381.187 188.989C388.711 189.457 396.485 190.393 404.477 192.048L403.54 206.627C395.783 204.955 388.025 204.036 380.268 203.785L381.204 188.989H381.187ZM294.2 115.577C287.395 115.577 280.574 115.828 273.753 116.546L269.272 102.67C277.046 101.734 284.57 101.265 291.842 101.265L296.557 115.61H294.217L294.2 115.577ZM305.502 202.146C311.353 199.572 318.208 196.964 326.183 194.623L331.366 210.171C324.511 212.261 317.706 215.087 310.885 218.364L305.485 202.146H305.502ZM198.736 140.287C192.617 143.363 186.732 146.891 180.629 150.653L169.812 134.185C176.165 130.423 182.268 127.163 188.153 124.087L198.736 140.304V140.287ZM246.936 246.117C251.149 240.717 256.098 235.316 261.481 230.368L272.081 246.368C266.898 251.768 262.217 257.185 258.204 263.086L246.936 246.1V246.117ZM212.83 321.853C214.702 313.393 216.842 304.683 219.885 295.989L236.804 309.397C234.464 318.559 232.792 327.738 231.872 336.9L212.813 321.853H212.83ZM109.842 210.155C104.158 216.006 98.7744 222.359 93.8256 228.712L75.7359 213.197C81.1361 207.312 87.0044 201.428 93.1234 195.559L109.842 210.138V210.155ZM38.7875 315.249C35.0425 323.942 30.0938 335.478 27.0509 343.47L0 333.606C2.34063 327.253 7.28938 315.483 11.7533 305.351L38.8042 315.249H38.7875ZM209.319 381.572L234.698 390.734C236.102 401.818 238.209 412.134 240.332 421.329L212.111 411.214C210.94 404.159 209.77 394.044 209.302 381.589L209.319 381.572Z" fill="#4E4D4A"/>
</g>
<defs>
<clipPath id="clip0_1_3">
<rect width="535" height="535" fill="white"/>
</clipPath>
</defs>
</svg>
