<svg width="256" height="256" viewBox="0 0 256 256" fill="none" xmlns="http://www.w3.org/2000/svg">
<path fill-rule="evenodd" clip-rule="evenodd" d="M128 7.38574C194.666 7.38574 248.614 61.3331 248.614 128C248.614 194.666 194.666 248.614 128 248.614C61.3331 248.614 7.38574 194.666 7.38574 128C7.38574 61.3331 61.3331 7.38574 128 7.38574ZM93.333 78.8594C100.351 78.8594 106.93 79.7366 112.193 81.9296C117.894 84.1225 123.158 87.1927 128.421 91.5787L116.14 108.245C112.631 105.614 109.122 103.859 106.052 102.544C102.982 101.228 99.0348 100.789 95.526 100.789C80.6137 100.789 73.1576 112.193 73.1576 135.438C73.1576 147.28 74.912 155.614 78.8593 160.438C82.8067 165.701 88.0698 167.894 95.526 167.894C99.0348 167.894 102.544 167.456 105.614 166.14C108.684 164.824 112.193 163.07 116.579 160.438L128.859 177.982C118.772 186.316 107.368 190.263 94.2102 190.263C83.6839 190.263 74.912 188.07 67.0172 183.684C59.5611 179.298 53.4207 172.719 49.4734 164.386C45.526 156.052 43.333 146.403 43.333 135C43.333 124.035 45.526 113.947 49.4734 105.614C53.4207 96.8418 59.5611 90.2629 67.0172 85.4383C74.4734 81.491 83.2453 78.8594 93.333 78.8594ZM178.859 219.21C188.07 211.754 194.649 201.666 199.035 188.07L233.245 82.8067H203.859L181.491 170.087L160.438 82.8067H130.175L166.579 199.473C166.579 199.473 163.07 203.421 161.315 204.737C156.491 208.245 149.035 210.438 138.947 211.754L142.017 231.93C157.368 230.614 169.649 226.666 178.859 219.21Z" fill="#5C5C5E"/>
</svg>
